<svg xmlns="http://www.w3.org/2000/svg" width="122.747" height="34.016"><path d="M114.643 0H8.108l-.931.002-.781.011c-.566.014-1.139.048-1.704.15s-1.098.27-1.616.533A5.49 5.49 0 0 0 1.7 1.698 5.31 5.31 0 0 0 .697 3.077C.432 3.594.265 4.126.165 4.695.063 5.258.027 5.828.013 6.398L0 7.181v.928 17.798.93l.013.784c.015.57.05 1.139.152 1.702.099.57.267 1.104.531 1.619.258.507.595.973 1.002 1.373.402.406.867.744 1.376 1.002a5.66 5.66 0 0 0 1.616.536 11.39 11.39 0 0 0 1.704.15l.781.009.931.002h106.535l.922-.002.784-.009c.57-.016 1.141-.049 1.701-.15a5.82 5.82 0 0 0 1.623-.536c.508-.258.973-.596 1.375-1.002.405-.399.742-.866 1.005-1.373.261-.516.43-1.05.526-1.619.105-.563.138-1.133.158-1.702l.003-.784.007-.93V8.109l-.007-.928-.003-.783c-.02-.57-.053-1.139-.158-1.702-.096-.57-.266-1.101-.526-1.619-.262-.509-.6-.976-1.005-1.379s-.867-.742-1.375-1.002c-.523-.263-1.053-.434-1.623-.533-.56-.101-1.131-.136-1.701-.15l-.784-.011-.92-.002h0z"/><path fill="#fff" d="M7.181 33.272c-.259 0-.512-.003-.769-.009a10.74 10.74 0 0 1-1.59-.139 5.02 5.02 0 0 1-1.409-.466c-.443-.225-.842-.516-1.188-.865-.352-.345-.642-.742-.868-1.188a4.89 4.89 0 0 1-.462-1.409c-.104-.572-.13-1.153-.142-1.594l-.012-.776V7.181l.012-.761c.011-.446.038-1.026.141-1.592.091-.522.242-.982.462-1.413a4.64 4.64 0 0 1 .865-1.189 4.74 4.74 0 0 1 1.193-.87c.436-.221.897-.373 1.406-.462a10.76 10.76 0 0 1 1.595-.14l.767-.01h108.379l.776.011a10.65 10.65 0 0 1 1.58.138c.512.09.976.242 1.421.466.436.223.835.515 1.183.864s.639.747.87 1.194c.219.435.369.895.455 1.402.099.536.13 1.087.148 1.605l.002.757.007.928v17.798l-.007.914-.003.791c-.017.501-.048 1.051-.145 1.576-.088.522-.238.982-.459 1.42-.229.442-.521.841-.864 1.178a4.63 4.63 0 0 1-1.19.87 5 5 0 0 1-1.418.468c-.545.099-1.109.125-1.59.139l-.763.009-.922.002-107.461-.002z"/><linearGradient id="A" gradientUnits="userSpaceOnUse" x1="17.169" y1="7.549" x2="17.169" y2="26.466"><stop offset="0" stop-color="#ff61ad"/><stop offset="1" stop-color="#ff2616"/></linearGradient><path fill-rule="evenodd" fill="url(#A)" d="M17.169 26.466c-.548 0-3.749-1.73-6.745-4.563-2.377-2.248-4.097-5.553-4.097-8.529 0-2.694 2.26-5.825 5.909-5.825 3.556 0 4.338 1.914 4.934 1.914.476 0 1.421-1.914 4.934-1.914 3.856 0 5.909 3.442 5.909 5.825 0 2.975-1.591 6.159-4.097 8.529-2.92 2.76-6.199 4.563-6.747 4.563z"/><path d="M34.516 12.547h-.744l-1.365-5.064h.817l.93 3.878h.049l1.056-3.878h.73l1.063 3.878h.049l.926-3.878h.818l-1.369 5.064h-.741L35.65 8.83h-.049l-1.085 3.717zm4.745-1.913c0-1.232.688-1.983 1.804-1.983s1.801.751 1.801 1.983c0 1.239-.685 1.986-1.801 1.986s-1.804-.747-1.804-1.986zm2.829 0c0-.828-.372-1.312-1.025-1.312s-1.024.484-1.024 1.312c0 .835.368 1.316 1.024 1.316s1.025-.484 1.025-1.316zm1.797-1.909h.727v.586h.056c.109-.375.534-.649 1.032-.649a1.6 1.6 0 0 1 .337.032v.744c-.063-.021-.288-.046-.421-.046-.572 0-.976.362-.976.898v2.257h-.755V8.725zm5.356 0h.891l-1.572 1.639 1.678 2.183h-.927l-1.312-1.685-.333.316v1.369h-.754V7.233h.754v3.085h.06l1.515-1.593zm3.052-.074c.86 0 1.421.4 1.495 1.074h-.723c-.07-.281-.344-.459-.772-.459-.421 0-.741.2-.741.498 0 .228.193.372.607.467l.635.147c.726.168 1.067.481 1.067 1.042 0 .719-.67 1.2-1.583 1.2s-1.502-.411-1.569-1.088h.755c.095.295.375.477.832.477.47 0 .804-.21.804-.516 0-.228-.179-.375-.562-.467l-.667-.154c-.726-.172-1.063-.499-1.063-1.067.001-.677.622-1.154 1.485-1.154zm8.597 3.896h-.783l-.789-2.815h-.061l-.786 2.814h-.776l-1.053-3.822h.765l.685 2.917h.056l.786-2.917h.723l.786 2.917h.06l.681-2.917h.755l-1.049 3.823zm1.848-4.952c0-.263.207-.463.488-.463s.487.2.487.463-.207.46-.487.46-.488-.2-.488-.46zm.112 1.13h.751v3.822h-.751V8.725zm2.992-.951v.969h.829v.635h-.829v1.965c0 .4.165.575.541.575.115 0 .183-.007.288-.018v.628c-.123.021-.264.039-.411.039-.839 0-1.172-.295-1.172-1.032V9.378h-.607v-.635h.607v-.969h.754zm1.865-.541h.747v2.106h.06c.187-.428.59-.685 1.165-.685.814 0 1.316.516 1.316 1.425v2.467h-.755v-2.281c0-.611-.284-.919-.817-.919-.618 0-.962.39-.962.969v2.232h-.754V7.233zM39.217 23.656h-4.028l-.967 2.856h-1.707l3.816-10.569h1.772l3.816 10.569h-1.736l-.966-2.856zm-3.611-1.318h3.193l-1.575-4.636h-.044l-1.574 4.636z"/><use href="#C"/><use href="#C" x="8.474"/><path d="M59.9 15.944h1.582v10.569H59.9V15.944zm9.814 8.306c-.212 1.399-1.574 2.358-3.317 2.358-2.241 0-3.633-1.501-3.633-3.911 0-2.417 1.399-3.984 3.567-3.984 2.131 0 3.471 1.465 3.471 3.801v.542h-5.441v.095c0 1.318.828 2.183 2.072 2.183.879 0 1.568-.417 1.78-1.084h1.501zm-5.345-2.3h3.852c-.036-1.179-.791-1.956-1.889-1.956-1.092 0-1.883.791-1.963 1.956zm16.955 4.563v-4.68h-5.428v4.68h-1.641V15.944h1.641v4.468h5.428v-4.468h1.641v10.569h-1.641zm9.998-2.263c-.213 1.399-1.575 2.358-3.318 2.358-2.241 0-3.633-1.501-3.633-3.911 0-2.417 1.398-3.984 3.566-3.984 2.132 0 3.473 1.465 3.473 3.801v.542h-5.442v.095c0 1.318.827 2.183 2.073 2.183.879 0 1.566-.417 1.779-1.084h1.502zm-5.348-2.3h3.854c-.037-1.179-.791-1.956-1.891-1.956-1.091 0-1.882.791-1.963 1.956zm6.35 2.373c0-1.348 1.033-2.161 2.864-2.271l2.109-.117v-.586c0-.857-.563-1.34-1.523-1.34-.879 0-1.494.417-1.618 1.084h-1.48c.045-1.392 1.341-2.38 3.143-2.38 1.838 0 3.055 1.003 3.055 2.52v5.281h-1.517v-1.267h-.037c-.447.857-1.422 1.399-2.432 1.399-1.51-.001-2.564-.939-2.564-2.323zm4.973-.696v-.593l-1.897.117c-.944.059-1.479.469-1.479 1.128 0 .674.557 1.113 1.406 1.113 1.106 0 1.97-.762 1.97-1.765zm3.163-7.683h1.582v10.569h-1.582V15.944zm5.26 1.04v1.824h1.465v1.252h-1.465v4.248c0 .659.293.967.938.967a4.74 4.74 0 0 0 .52-.037v1.245c-.176.044-.527.073-.879.073-1.561 0-2.168-.586-2.168-2.08V20.06h-1.121v-1.252h1.121v-1.824h1.589zm2.821-1.04h1.566v4.175h.037c.461-.923 1.26-1.399 2.439-1.399 1.691 0 2.702 1.128 2.702 2.871v4.922h-1.589v-4.607c0-1.135-.572-1.824-1.686-1.824-1.172 0-1.889.806-1.889 2.029v4.402h-1.582V15.944z"/><defs ><path id="C" d="M50.152 22.66c0 2.395-1.282 3.933-3.215 3.933-1.099 0-1.97-.491-2.424-1.348h-.037v3.816h-1.582V18.808h1.531v1.282h.029c.439-.828 1.377-1.362 2.454-1.362 1.955-.001 3.244 1.544 3.244 3.932zm-1.626 0c0-1.56-.806-2.585-2.036-2.585-1.208 0-2.021 1.047-2.021 2.585 0 1.553.813 2.593 2.021 2.593 1.23 0 2.036-1.018 2.036-2.593z"/></defs></svg>
