<svg width="112" height="34" viewBox="0 0 112 34" fill="none" xmlns="http://www.w3.org/2000/svg">
<path d="M0 0H14.8842V7.95745L7.44212 11.9577L0 7.95745V0Z" fill="url(#paint0_linear_824_1718)"/>
<path fill-rule="evenodd" clip-rule="evenodd" d="M96.0992 31.5003C97.6203 33.1643 99.7119 33.9963 102.374 33.9963C103.491 33.9963 104.513 33.7854 105.44 33.3635C106.367 32.9417 107.056 32.3792 107.508 31.676V33.7151H112V8.82471H107.508V17.9652C106.343 16.4653 104.608 15.7153 102.303 15.7153C99.6881 15.7153 97.6203 16.559 96.0992 18.2465C94.578 19.9105 93.8174 22.1136 93.8174 24.8558C93.8174 27.598 94.578 29.8128 96.0992 31.5003ZM106.474 28.7229C105.618 29.6839 104.466 30.1643 103.016 30.1643C101.59 30.1643 100.437 29.6839 99.5574 28.7229C98.7018 27.7386 98.2739 26.4495 98.2739 24.8558C98.2739 23.2621 98.7018 21.9847 99.5574 21.0238C100.437 20.0394 101.59 19.5473 103.016 19.5473C104.466 19.5473 105.618 20.0394 106.474 21.0238C107.353 21.9847 107.793 23.2621 107.793 24.8558C107.793 26.4495 107.353 27.7386 106.474 28.7229ZM73.6795 15.9983V33.7169H78.1717V25.9474C78.1717 23.9552 78.5519 22.4084 79.3125 21.3068C80.0731 20.2053 81.1427 19.6545 82.5212 19.6545C83.567 19.6545 84.3989 19.9826 85.0168 20.6389C85.6348 21.2717 85.9438 22.1154 85.9438 23.1701V33.7169H90.436V22.1154C90.436 20.1935 89.8299 18.6467 88.6177 17.4748C87.4293 16.303 85.8487 15.717 83.876 15.717C82.64 15.717 81.5229 15.9866 80.5247 16.5256C79.5502 17.0647 78.7659 17.7795 78.1717 18.6701V15.9983H73.6795ZM70.2812 24.2599C70.2812 24.963 70.2574 25.549 70.2099 26.0177H56.876C57.0662 27.3536 57.5772 28.3966 58.409 29.1466C59.2409 29.8966 60.2986 30.2716 61.5821 30.2716C62.6279 30.2716 63.5073 30.0372 64.2203 29.5685C64.9334 29.0997 65.4087 28.4318 65.6464 27.5646L69.8533 28.6896C69.3542 30.3536 68.3678 31.6544 66.8942 32.5919C65.4206 33.5294 63.6261 33.9981 61.5108 33.9981C58.6824 33.9981 56.4482 33.0958 54.8082 31.2911C53.192 29.463 52.3839 27.3185 52.3839 24.8576C52.3839 22.3732 53.1563 20.2287 54.7012 18.424C56.2699 16.6194 58.4566 15.717 61.2612 15.717C64.1134 15.717 66.3238 16.5842 67.8925 18.3186C69.4849 20.0295 70.2812 22.0099 70.2812 24.2599ZM56.983 22.7834H65.4681C65.3493 21.6818 64.9334 20.7912 64.2203 20.1115C63.5073 19.4318 62.5209 19.092 61.2612 19.092C60.1441 19.092 59.2053 19.4084 58.4447 20.0412C57.7079 20.674 57.2206 21.5881 56.983 22.7834ZM47.7165 33.9999C48.786 33.9999 49.7486 33.8476 50.6043 33.5429L50.2834 29.6757C49.713 29.957 49.0118 30.0976 48.18 30.0976C47.4669 30.0976 46.8965 29.875 46.4687 29.4296C46.0646 28.9609 45.8626 28.3164 45.8626 27.4961V19.7266H50.3904V16.0001H45.8626V10.797H41.3704V16.0001V19.7266V27.9179C41.3704 29.9101 41.9527 31.4218 43.1174 32.4531C44.282 33.4843 45.815 33.9999 47.7165 33.9999ZM20.0785 33.6038V15.8852H24.5707V18.5571C25.1649 17.6664 25.9492 16.9516 26.9237 16.4126C27.9219 15.8735 29.039 15.604 30.275 15.604C32.2477 15.604 33.8283 16.1899 35.0167 17.3618C36.2289 18.5336 36.8349 20.0805 36.8349 22.0023V33.6038H32.3428V23.057C32.3428 22.0023 32.0338 21.1586 31.4158 20.5258C30.7979 19.8696 29.966 19.5414 28.9202 19.5414C27.5417 19.5414 26.4721 20.0922 25.7115 21.1938C24.9509 22.2953 24.5707 23.8422 24.5707 25.8343V33.6038H20.0785ZM0 33.8798L14.8842 33.8798L14.8842 15.9576L7.44212 11.9573L0 15.9576V33.8798Z" fill="url(#paint1_radial_824_1718)"/>
<defs>
<linearGradient id="paint0_linear_824_1718" x1="2.50982" y1="-10.0171" x2="7.37653" y2="11.9723" gradientUnits="userSpaceOnUse">
<stop stop-color="#24AE9D"/>
<stop offset="1" stop-color="#2FCFBC"/>
</linearGradient>
<radialGradient id="paint1_radial_824_1718" cx="0" cy="0" r="1" gradientUnits="userSpaceOnUse" gradientTransform="translate(-25.7256 -4.40958) rotate(15.2617) scale(144.387 32.4869)">
<stop stop-color="#5C12B8"/>
<stop offset="1" stop-color="#290852"/>
</radialGradient>
</defs>
</svg>
